<svg width="1200" height="800" viewBox="0 0 1200 800" fill="none" xmlns="http://www.w3.org/2000/svg">
  <defs>
    <linearGradient id="bg" x1="0" y1="0" x2="1200" y2="800" gradientUnits="userSpaceOnUse">
      <stop stop-color="#EEF2FF"/>
      <stop offset="0.35" stop-color="#E0E7FF"/>
      <stop offset="1" stop-color="#ECFEFF"/>
    </linearGradient>
    <linearGradient id="accent" x1="210" y1="110" x2="980" y2="710" gradientUnits="userSpaceOnUse">
      <stop stop-color="#4F46E5" stop-opacity="0.85"/>
      <stop offset="0.6" stop-color="#2563EB" stop-opacity="0.55"/>
      <stop offset="1" stop-color="#10B981" stop-opacity="0.55"/>
    </linearGradient>
    <filter id="blur" x="-200" y="-200" width="1600" height="1200" filterUnits="userSpaceOnUse">
      <feGaussianBlur stdDeviation="48" />
    </filter>
  </defs>

  <rect width="1200" height="800" rx="48" fill="url(#bg)"/>
  <g filter="url(#blur)">
    <circle cx="300" cy="250" r="170" fill="url(#accent)" opacity="0.65"/>
    <circle cx="860" cy="220" r="200" fill="#38BDF8" opacity="0.25"/>
    <circle cx="760" cy="610" r="250" fill="#34D399" opacity="0.22"/>
  </g>

  <rect x="170" y="390" width="860" height="210" rx="26" fill="white" opacity="0.72"/>
  <rect x="210" y="430" width="520" height="22" rx="11" fill="#0F172A" opacity="0.15"/>
  <rect x="210" y="470" width="360" height="18" rx="9" fill="#0F172A" opacity="0.12"/>
  <rect x="210" y="510" width="430" height="18" rx="9" fill="#0F172A" opacity="0.10"/>

  <rect x="760" y="430" width="230" height="120" rx="22" fill="#4F46E5" opacity="0.12"/>
  <rect x="785" y="455" width="180" height="16" rx="8" fill="#4F46E5" opacity="0.35"/>
  <rect x="785" y="485" width="140" height="14" rx="7" fill="#4F46E5" opacity="0.25"/>
  <rect x="785" y="512" width="160" height="14" rx="7" fill="#4F46E5" opacity="0.20"/>

  <rect x="170" y="150" width="420" height="52" rx="18" fill="white" opacity="0.78"/>
  <rect x="200" y="170" width="300" height="14" rx="7" fill="#4F46E5" opacity="0.45"/>
</svg>

